<svg xmlns="http://www.w3.org/2000/svg" xmlns:xlink="http://www.w3.org/1999/xlink" width="292" zoomAndPan="magnify" viewBox="0 0 218.87999 138.749998" height="185" preserveAspectRatio="xMidYMid meet" version="1.0"><defs><g/><clipPath id="aa97a60373"><path d="M 64.933594 29 L 84 29 L 84 61 L 64.933594 61 Z M 64.933594 29 " clip-rule="nonzero"/></clipPath><clipPath id="ea906b6bd5"><path d="M 92 69 L 126 69 L 126 88.339844 L 92 88.339844 Z M 92 69 " clip-rule="nonzero"/></clipPath><clipPath id="aed363df49"><path d="M 134 28 L 153.273438 28 L 153.273438 61 L 134 61 Z M 134 28 " clip-rule="nonzero"/></clipPath></defs><path fill="#ffffff" d="M 94.003906 10.320312 L 100.429688 16.746094 C 106.03125 14.976562 112.105469 14.976562 117.707031 16.746094 L 124.132812 10.320312 L 124.074219 10.320312 L 124.191406 1.886719 C 121.835938 1.0625 119.417969 0.414062 117 0 L 112.871094 7.371094 C 110.277344 7.074219 107.683594 7.074219 105.089844 7.371094 L 100.960938 0 C 98.542969 0.414062 96.125 1.0625 93.765625 1.886719 Z M 94.003906 10.320312 " fill-opacity="1" fill-rule="nonzero"/><g clip-path="url(#aa97a60373)"><path fill="#ffffff" d="M 76.019531 60.851562 C 76.078125 60.792969 76.136719 60.734375 76.195312 60.675781 C 78.140625 58.730469 80.792969 57.550781 83.507812 57.3125 C 80.027344 50.53125 79.378906 42.691406 81.621094 35.496094 L 75.253906 29.070312 L 75.253906 29.128906 L 66.820312 29.011719 C 65.996094 31.371094 65.347656 33.785156 64.933594 36.203125 L 72.304688 40.332031 C 72.007812 42.925781 72.007812 45.519531 72.304688 48.113281 L 64.933594 52.242188 C 65.347656 54.660156 65.996094 57.078125 66.820312 59.4375 L 75.253906 59.320312 C 75.488281 59.789062 75.722656 60.320312 76.019531 60.851562 Z M 76.019531 60.851562 " fill-opacity="1" fill-rule="nonzero"/></g><g clip-path="url(#ea906b6bd5)"><path fill="#ffffff" d="M 122.246094 69.695312 C 113.992188 73.941406 104.085938 73.941406 95.773438 69.636719 C 95.535156 72.351562 94.355469 74.945312 92.410156 76.890625 C 92.351562 76.949219 92.234375 77.066406 92.175781 77.125 C 92.765625 77.421875 93.414062 77.714844 94.003906 78.011719 L 93.886719 86.441406 C 96.242188 87.269531 98.660156 87.917969 101.078125 88.328125 L 105.207031 80.957031 C 107.800781 81.253906 110.394531 81.253906 112.988281 80.957031 L 117.117188 88.328125 C 119.535156 87.917969 121.953125 87.269531 124.3125 86.441406 L 124.191406 78.011719 C 124.78125 77.773438 125.3125 77.480469 125.84375 77.242188 C 123.722656 75.238281 122.425781 72.585938 122.246094 69.695312 Z M 122.246094 69.695312 " fill-opacity="1" fill-rule="nonzero"/></g><g clip-path="url(#aed363df49)"><path fill="#ffffff" d="M 145.890625 40.273438 L 153.261719 36.144531 C 152.851562 33.726562 152.199219 31.308594 151.375 28.953125 L 142.945312 29.070312 L 142.945312 29.011719 L 136.515625 35.4375 C 138.757812 42.632812 138.167969 50.589844 134.570312 57.371094 C 137.28125 57.609375 139.878906 58.789062 141.824219 60.734375 C 141.882812 60.792969 142 60.910156 142.058594 60.96875 C 142.355469 60.378906 142.648438 59.789062 142.945312 59.140625 L 151.375 59.257812 C 152.199219 56.902344 152.851562 54.484375 153.261719 52.066406 L 145.890625 47.9375 C 146.1875 45.460938 146.1875 42.867188 145.890625 40.273438 Z M 145.890625 40.273438 " fill-opacity="1" fill-rule="nonzero"/></g><path fill="#ffffff" d="M 73.128906 24.941406 C 75.015625 21.933594 77.609375 18.75 80.441406 15.921875 C 83.390625 12.972656 86.75 10.261719 89.875 8.371094 L 87.339844 5.835938 C 86.867188 5.367188 86.160156 5.308594 85.628906 5.660156 C 82.917969 7.371094 79.96875 9.730469 77.140625 12.617188 C 74.425781 15.332031 72.128906 18.101562 70.476562 20.695312 C 70.121094 21.226562 70.179688 21.992188 70.652344 22.464844 Z M 73.128906 24.941406 " fill-opacity="1" fill-rule="nonzero"/><path fill="#ffffff" d="M 84.6875 20.578125 C 85.6875 19.046875 87.871094 18.988281 88.933594 20.402344 C 89.640625 21.34375 89.640625 22.640625 88.933594 23.585938 C 87.8125 25 85.628906 24.941406 84.628906 23.351562 C 84.15625 22.464844 84.15625 21.402344 84.6875 20.578125 Z M 74.484375 26.296875 L 87.515625 39.328125 C 88.046875 38.503906 88.636719 37.621094 89.226562 36.734375 C 89.523438 36.320312 89.582031 35.792969 89.34375 35.320312 L 87.753906 32.078125 C 87.515625 31.546875 87.574219 30.957031 87.929688 30.542969 C 88.992188 29.304688 90.109375 28.066406 91.347656 26.828125 C 92.707031 25.472656 94.121094 24.234375 95.476562 23.113281 C 95.890625 22.761719 96.539062 22.703125 97.011719 22.9375 L 100.3125 24.589844 C 100.785156 24.824219 101.316406 24.765625 101.726562 24.46875 C 102.554688 23.878906 103.4375 23.351562 104.203125 22.820312 L 104.320312 22.703125 L 91.289062 9.671875 C 88.519531 11.261719 85.277344 13.738281 81.796875 17.21875 C 78.496094 20.460938 76.136719 23.644531 74.484375 26.296875 Z M 74.484375 26.296875 " fill-opacity="1" fill-rule="nonzero"/><path fill="#ffffff" d="M 137.402344 72.585938 C 135.335938 74.648438 132.035156 74.648438 130.03125 72.585938 C 127.964844 70.523438 127.964844 67.21875 130.03125 65.214844 C 132.09375 63.152344 135.394531 63.152344 137.402344 65.214844 C 139.464844 67.21875 139.464844 70.582031 137.402344 72.585938 Z M 133.332031 58.90625 C 130.738281 59.023438 128.203125 57.902344 126.375 56.074219 L 114.523438 44.164062 L 127.847656 30.839844 C 126.964844 29.835938 126.019531 28.832031 125.078125 27.832031 C 124.191406 26.945312 123.25 26.0625 122.304688 25.238281 L 108.980469 38.621094 L 95.710938 25.355469 C 94.710938 26.238281 93.707031 27.183594 92.707031 28.125 C 91.820312 29.011719 90.9375 29.953125 90.109375 30.898438 L 120.832031 61.617188 C 122.660156 63.445312 123.722656 65.921875 123.601562 68.515625 C 123.484375 71.347656 124.605469 74.238281 126.964844 76.359375 C 130.738281 79.71875 136.574219 79.71875 140.347656 76.359375 C 144.652344 72.46875 144.773438 65.863281 140.761719 61.796875 C 138.757812 59.789062 136.042969 58.789062 133.332031 58.90625 Z M 133.332031 58.90625 " fill-opacity="1" fill-rule="nonzero"/><path fill="#ffffff" d="M 144.949219 25 L 147.484375 22.464844 C 147.957031 21.992188 148.015625 21.285156 147.660156 20.753906 C 145.949219 18.042969 143.59375 15.09375 140.703125 12.265625 C 137.992188 9.550781 135.21875 7.253906 132.625 5.601562 C 132.09375 5.246094 131.328125 5.308594 130.855469 5.777344 L 128.320312 8.3125 C 131.328125 10.199219 134.511719 12.796875 137.34375 15.625 C 140.347656 18.515625 143.0625 21.875 144.949219 25 Z M 144.949219 25 " fill-opacity="1" fill-rule="nonzero"/><path fill="#ffffff" d="M 129.972656 19.753906 C 130.796875 19.222656 131.859375 19.222656 132.683594 19.753906 C 134.21875 20.753906 134.277344 22.9375 132.859375 24 C 131.917969 24.707031 130.621094 24.707031 129.675781 24 C 128.261719 22.9375 128.378906 20.695312 129.972656 19.753906 Z M 116.46875 24.351562 C 116.882812 24.648438 117.410156 24.707031 117.882812 24.46875 L 121.1875 22.820312 C 121.714844 22.582031 122.304688 22.640625 122.71875 22.996094 C 123.957031 24.058594 125.195312 25.179688 126.433594 26.417969 C 127.789062 27.773438 129.027344 29.1875 130.148438 30.542969 C 130.503906 30.957031 130.5625 31.605469 130.324219 32.078125 L 128.675781 35.378906 C 128.4375 35.851562 128.496094 36.382812 128.792969 36.792969 C 129.382812 37.621094 129.914062 38.503906 130.441406 39.269531 L 130.5625 39.386719 L 143.59375 26.355469 C 142 23.585938 139.523438 20.34375 136.042969 16.863281 C 132.742188 13.5625 129.617188 11.203125 126.964844 9.609375 L 113.933594 22.640625 C 114.757812 23.171875 115.644531 23.761719 116.46875 24.351562 Z M 116.46875 24.351562 " fill-opacity="1" fill-rule="nonzero"/><path fill="#ffffff" d="M 88.046875 72.46875 C 85.984375 74.53125 82.683594 74.53125 80.675781 72.46875 C 78.613281 70.402344 78.613281 67.101562 80.675781 65.097656 C 82.742188 63.035156 86.042969 63.035156 88.046875 65.097656 C 90.109375 67.160156 90.109375 70.460938 88.046875 72.46875 Z M 94.355469 68.457031 C 94.238281 65.863281 95.359375 63.328125 97.1875 61.5 L 107.917969 50.769531 L 102.375 45.226562 L 91.585938 55.957031 C 89.757812 57.785156 87.28125 58.847656 84.6875 58.789062 C 81.855469 58.667969 78.96875 59.789062 76.84375 62.148438 C 73.484375 65.921875 73.484375 71.761719 76.84375 75.535156 C 80.734375 79.839844 87.339844 79.957031 91.410156 75.945312 C 93.472656 73.824219 94.476562 71.113281 94.355469 68.457031 Z M 94.355469 68.457031 " fill-opacity="1" fill-rule="nonzero"/><g fill="#ffffff" fill-opacity="1"><g transform="translate(58.493501, 117.82143)"><g><path d="M 4 -2.9375 L 5.6875 -2.9375 L 5.6875 -13.40625 L 3.703125 -13.40625 L 3.703125 -11.3125 L 0.21875 -11.3125 L 0.21875 -16.25 L 15 -16.25 L 15 -11.3125 L 11.484375 -11.3125 L 11.484375 -13.40625 L 9.234375 -13.40625 L 9.234375 -2.9375 L 10.953125 -2.9375 L 10.953125 0 L 4 0 Z M 4 -2.9375 "/></g></g></g><g fill="#ffffff" fill-opacity="1"><g transform="translate(73.824477, 117.82143)"><g><path d="M 0.546875 -16.25 L 7.0625 -16.25 L 7.0625 -13.296875 L 5.578125 -13.296875 L 5.578125 -6.5625 C 5.578125 -5.945312 5.644531 -5.425781 5.78125 -5 C 5.914062 -4.570312 6.109375 -4.21875 6.359375 -3.9375 C 6.617188 -3.664062 6.914062 -3.46875 7.25 -3.34375 C 7.59375 -3.21875 7.96875 -3.15625 8.375 -3.15625 C 8.800781 -3.15625 9.1875 -3.207031 9.53125 -3.3125 C 9.882812 -3.425781 10.179688 -3.613281 10.421875 -3.875 C 10.671875 -4.132812 10.859375 -4.484375 10.984375 -4.921875 C 11.117188 -5.359375 11.1875 -5.90625 11.1875 -6.5625 L 11.1875 -13.296875 L 9.46875 -13.296875 L 9.46875 -16.25 L 15.984375 -16.25 L 15.984375 -13.296875 L 14.6875 -13.296875 L 14.6875 -6.984375 C 14.6875 -5.835938 14.519531 -4.816406 14.1875 -3.921875 C 13.863281 -3.035156 13.410156 -2.285156 12.828125 -1.671875 C 12.253906 -1.054688 11.578125 -0.585938 10.796875 -0.265625 C 10.023438 0.0546875 9.195312 0.21875 8.3125 0.21875 C 7.4375 0.21875 6.613281 0.0625 5.84375 -0.25 C 5.082031 -0.570312 4.414062 -1.035156 3.84375 -1.640625 C 3.28125 -2.242188 2.832031 -2.976562 2.5 -3.84375 C 2.175781 -4.707031 2.015625 -5.6875 2.015625 -6.78125 L 2.015625 -13.296875 L 0.546875 -13.296875 Z M 0.546875 -16.25 "/></g></g></g><g fill="#ffffff" fill-opacity="1"><g transform="translate(90.559906, 117.82143)"><g><path d="M 11.484375 -16.25 L 17.65625 -16.25 L 17.65625 -13.296875 L 16.34375 -13.296875 L 16.34375 0 L 12.78125 0 L 6.015625 -10.5 L 6.015625 -2.9375 L 7.375 -2.9375 L 7.375 0 L 1.21875 0 L 1.21875 -2.9375 L 2.546875 -2.9375 L 2.546875 -13.296875 L 1.234375 -13.296875 L 1.234375 -16.25 L 6.140625 -16.25 L 12.859375 -5.609375 L 12.859375 -13.296875 L 11.484375 -13.296875 Z M 11.484375 -16.25 "/></g></g></g><g fill="#ffffff" fill-opacity="1"><g transform="translate(108.7641, 117.82143)"><g><path d="M 1.21875 -16.25 L 14.140625 -16.25 L 14.140625 -10.703125 L 10.640625 -10.703125 L 10.640625 -13.015625 L 6.46875 -13.015625 L 6.46875 -9.8125 L 9.703125 -9.8125 L 9.703125 -6.703125 L 6.46875 -6.703125 L 6.46875 -2.9375 L 10.640625 -2.9375 L 10.640625 -5.828125 L 14.140625 -5.828125 L 14.140625 0 L 1.21875 0 L 1.21875 -2.9375 L 2.921875 -2.9375 L 2.921875 -13.015625 L 1.21875 -13.015625 Z M 1.21875 -16.25 "/></g></g></g><g fill="#ffffff" fill-opacity="1"><g transform="translate(123.559028, 117.82143)"><g/></g></g><g fill="#ffffff" fill-opacity="1"><g transform="translate(127.954622, 117.82143)"><g><path d="M 0.546875 -16.25 L 7.0625 -16.25 L 7.0625 -13.296875 L 5.578125 -13.296875 L 5.578125 -6.5625 C 5.578125 -5.945312 5.644531 -5.425781 5.78125 -5 C 5.914062 -4.570312 6.109375 -4.21875 6.359375 -3.9375 C 6.617188 -3.664062 6.914062 -3.46875 7.25 -3.34375 C 7.59375 -3.21875 7.96875 -3.15625 8.375 -3.15625 C 8.800781 -3.15625 9.1875 -3.207031 9.53125 -3.3125 C 9.882812 -3.425781 10.179688 -3.613281 10.421875 -3.875 C 10.671875 -4.132812 10.859375 -4.484375 10.984375 -4.921875 C 11.117188 -5.359375 11.1875 -5.90625 11.1875 -6.5625 L 11.1875 -13.296875 L 9.46875 -13.296875 L 9.46875 -16.25 L 15.984375 -16.25 L 15.984375 -13.296875 L 14.6875 -13.296875 L 14.6875 -6.984375 C 14.6875 -5.835938 14.519531 -4.816406 14.1875 -3.921875 C 13.863281 -3.035156 13.410156 -2.285156 12.828125 -1.671875 C 12.253906 -1.054688 11.578125 -0.585938 10.796875 -0.265625 C 10.023438 0.0546875 9.195312 0.21875 8.3125 0.21875 C 7.4375 0.21875 6.613281 0.0625 5.84375 -0.25 C 5.082031 -0.570312 4.414062 -1.035156 3.84375 -1.640625 C 3.28125 -2.242188 2.832031 -2.976562 2.5 -3.84375 C 2.175781 -4.707031 2.015625 -5.6875 2.015625 -6.78125 L 2.015625 -13.296875 L 0.546875 -13.296875 Z M 0.546875 -16.25 "/></g></g></g><g fill="#ffffff" fill-opacity="1"><g transform="translate(144.690051, 117.82143)"><g><path d="M 1.21875 -16.25 L 8.71875 -16.25 C 9.550781 -16.25 10.316406 -16.117188 11.015625 -15.859375 C 11.710938 -15.597656 12.316406 -15.242188 12.828125 -14.796875 C 13.335938 -14.359375 13.734375 -13.847656 14.015625 -13.265625 C 14.304688 -12.691406 14.453125 -12.085938 14.453125 -11.453125 C 14.453125 -10.703125 14.335938 -9.992188 14.109375 -9.328125 C 13.890625 -8.671875 13.539062 -8.097656 13.0625 -7.609375 C 12.59375 -7.117188 11.992188 -6.734375 11.265625 -6.453125 C 10.546875 -6.171875 9.695312 -6.03125 8.71875 -6.03125 L 6.453125 -6.03125 L 6.453125 -2.9375 L 7.9375 -2.9375 L 7.9375 0 L 1.21875 0 L 1.21875 -2.9375 L 2.890625 -2.9375 L 2.890625 -13.296875 L 1.21875 -13.296875 Z M 6.453125 -13.296875 L 6.453125 -8.9375 L 7.921875 -8.9375 C 8.734375 -8.9375 9.378906 -9.109375 9.859375 -9.453125 C 10.335938 -9.796875 10.578125 -10.335938 10.578125 -11.078125 C 10.578125 -11.773438 10.351562 -12.316406 9.90625 -12.703125 C 9.457031 -13.097656 8.796875 -13.296875 7.921875 -13.296875 Z M 6.453125 -13.296875 "/></g></g></g><path stroke-linecap="butt" transform="matrix(0.748651, 0, 0, 0.748651, 34.235209, 128.081415)" fill="none" stroke-linejoin="miter" d="M -0.00111343 1.999209 L 29.118971 1.999209 " stroke="#ffffff" stroke-width="4" stroke-opacity="1" stroke-miterlimit="4"/><g fill="#ffffff" fill-opacity="1"><g transform="translate(84.668422, 132.947647)"><g><path d="M 3.375 0.109375 C 2.84375 0.109375 2.367188 0.046875 1.953125 -0.078125 C 1.546875 -0.210938 1.207031 -0.382812 0.9375 -0.59375 C 0.664062 -0.8125 0.457031 -1.046875 0.3125 -1.296875 L 1.140625 -2.3125 L 1.265625 -2.3125 C 1.492188 -1.96875 1.785156 -1.691406 2.140625 -1.484375 C 2.492188 -1.285156 2.90625 -1.1875 3.375 -1.1875 C 3.78125 -1.1875 4.082031 -1.269531 4.28125 -1.4375 C 4.488281 -1.613281 4.59375 -1.851562 4.59375 -2.15625 C 4.59375 -2.332031 4.554688 -2.476562 4.484375 -2.59375 C 4.421875 -2.71875 4.3125 -2.820312 4.15625 -2.90625 C 4.007812 -3 3.804688 -3.078125 3.546875 -3.140625 L 2.5625 -3.359375 C 1.882812 -3.515625 1.375 -3.773438 1.03125 -4.140625 C 0.695312 -4.503906 0.53125 -4.976562 0.53125 -5.5625 C 0.53125 -5.988281 0.640625 -6.363281 0.859375 -6.6875 C 1.078125 -7.019531 1.390625 -7.273438 1.796875 -7.453125 C 2.210938 -7.640625 2.707031 -7.734375 3.28125 -7.734375 C 3.863281 -7.734375 4.363281 -7.65625 4.78125 -7.5 C 5.207031 -7.34375 5.5625 -7.101562 5.84375 -6.78125 L 5.09375 -5.765625 L 4.96875 -5.765625 C 4.75 -5.992188 4.5 -6.160156 4.21875 -6.265625 C 3.945312 -6.378906 3.632812 -6.4375 3.28125 -6.4375 C 2.863281 -6.4375 2.546875 -6.363281 2.328125 -6.21875 C 2.117188 -6.070312 2.015625 -5.875 2.015625 -5.625 C 2.015625 -5.375 2.085938 -5.175781 2.234375 -5.03125 C 2.390625 -4.894531 2.648438 -4.785156 3.015625 -4.703125 L 4.015625 -4.5 C 4.753906 -4.34375 5.289062 -4.078125 5.625 -3.703125 C 5.96875 -3.328125 6.140625 -2.84375 6.140625 -2.25 C 6.140625 -1.769531 6.035156 -1.351562 5.828125 -1 C 5.617188 -0.644531 5.304688 -0.367188 4.890625 -0.171875 C 4.484375 0.015625 3.976562 0.109375 3.375 0.109375 Z M 3.375 0.109375 "/></g></g></g><g fill="#ffffff" fill-opacity="1"><g transform="translate(93.101455, 132.947647)"><g><path d="M 4.15625 0.109375 C 3.457031 0.109375 2.835938 -0.03125 2.296875 -0.3125 C 1.765625 -0.601562 1.347656 -1.039062 1.046875 -1.625 C 0.742188 -2.207031 0.59375 -2.9375 0.59375 -3.8125 C 0.59375 -4.675781 0.742188 -5.398438 1.046875 -5.984375 C 1.347656 -6.578125 1.765625 -7.015625 2.296875 -7.296875 C 2.835938 -7.585938 3.457031 -7.734375 4.15625 -7.734375 C 4.851562 -7.734375 5.46875 -7.585938 6 -7.296875 C 6.53125 -7.015625 6.945312 -6.578125 7.25 -5.984375 C 7.550781 -5.398438 7.703125 -4.675781 7.703125 -3.8125 C 7.703125 -2.9375 7.550781 -2.203125 7.25 -1.609375 C 6.945312 -1.023438 6.53125 -0.59375 6 -0.3125 C 5.46875 -0.03125 4.851562 0.109375 4.15625 0.109375 Z M 4.15625 -1.203125 C 4.800781 -1.203125 5.289062 -1.40625 5.625 -1.8125 C 5.96875 -2.226562 6.140625 -2.894531 6.140625 -3.8125 C 6.140625 -4.71875 5.96875 -5.378906 5.625 -5.796875 C 5.289062 -6.210938 4.800781 -6.421875 4.15625 -6.421875 C 3.5 -6.421875 3 -6.210938 2.65625 -5.796875 C 2.320312 -5.378906 2.15625 -4.71875 2.15625 -3.8125 C 2.15625 -2.894531 2.320312 -2.226562 2.65625 -1.8125 C 3 -1.40625 3.5 -1.203125 4.15625 -1.203125 Z M 4.15625 -1.203125 "/></g></g></g><g fill="#ffffff" fill-opacity="1"><g transform="translate(103.289961, 132.947647)"><g><path d="M 4.15625 0.109375 C 3.457031 0.109375 2.835938 -0.0351562 2.296875 -0.328125 C 1.765625 -0.617188 1.347656 -1.054688 1.046875 -1.640625 C 0.742188 -2.222656 0.59375 -2.945312 0.59375 -3.8125 C 0.59375 -4.664062 0.742188 -5.382812 1.046875 -5.96875 C 1.347656 -6.5625 1.765625 -7.003906 2.296875 -7.296875 C 2.835938 -7.585938 3.457031 -7.734375 4.15625 -7.734375 C 4.894531 -7.734375 5.519531 -7.585938 6.03125 -7.296875 C 6.539062 -7.015625 6.90625 -6.578125 7.125 -5.984375 L 6.03125 -5.3125 L 5.90625 -5.3125 C 5.738281 -5.71875 5.515625 -6.003906 5.234375 -6.171875 C 4.953125 -6.347656 4.59375 -6.4375 4.15625 -6.4375 C 3.53125 -6.4375 3.039062 -6.222656 2.6875 -5.796875 C 2.332031 -5.378906 2.15625 -4.71875 2.15625 -3.8125 C 2.15625 -2.90625 2.332031 -2.238281 2.6875 -1.8125 C 3.039062 -1.394531 3.53125 -1.1875 4.15625 -1.1875 C 5.15625 -1.1875 5.765625 -1.671875 5.984375 -2.640625 L 6.109375 -2.640625 L 7.21875 -2.0625 C 7.007812 -1.332031 6.65625 -0.785156 6.15625 -0.421875 C 5.65625 -0.0664062 4.988281 0.109375 4.15625 0.109375 Z M 4.15625 0.109375 "/></g></g></g><g fill="#ffffff" fill-opacity="1"><g transform="translate(112.650217, 132.947647)"><g><path d="M 2.5 0 L 0.984375 0 L 0.984375 -7.625 L 2.5 -7.625 Z M 2.5 0 "/></g></g></g><g fill="#ffffff" fill-opacity="1"><g transform="translate(118.030706, 132.947647)"><g><path d="M 7.3125 0 L 5.734375 0 L 5.15625 -1.75 L 2.234375 -1.75 L 1.65625 0 L 0.109375 0 L 2.75 -7.625 L 4.671875 -7.625 Z M 3.625 -6.03125 L 2.640625 -3.015625 L 4.734375 -3.015625 L 3.75 -6.03125 Z M 3.625 -6.03125 "/></g></g></g><g fill="#ffffff" fill-opacity="1"><g transform="translate(127.344081, 132.947647)"><g><path d="M 2.5 -7.625 L 2.5 -1.265625 L 5.921875 -1.265625 L 5.921875 0 L 0.984375 0 L 0.984375 -7.625 Z M 2.5 -7.625 "/></g></g></g><path stroke-linecap="butt" transform="matrix(0.748651, 0, 0, 0.748651, 163.186087, 128.081415)" fill="none" stroke-linejoin="miter" d="M 0.0018879 1.999209 L 29.121972 1.999209 " stroke="#ffffff" stroke-width="4" stroke-opacity="1" stroke-miterlimit="4"/></svg>